
#define NOTE_C4  262   //Defining note frequency
#define NOTE_D4  294
#define NOTE_E4  330
#define NOTE_F4  349
#define NOTE_G4  392
#define NOTE_A4  440
#define NOTE_B4  494
#define NOTE_C5  523
#define NOTE_D5  587
#define NOTE_E5  659
#define NOTE_F5  698
#define NOTE_G5  784
#define NOTE_A5  880
#define NOTE_B5  988
#define NOTE_G3  262
#define NOTE_A3  262
#define NOTE_B3  262


int notes[]={
   NOTE_E4, NOTE_G4, NOTE_A4, NOTE_A4, 0, 
   NOTE_A4, NOTE_B4, NOTE_C5, NOTE_C5, 0, 
   NOTE_C5, NOTE_D5, NOTE_B4, NOTE_B4, 0,
   NOTE_A4, NOTE_G4, NOTE_A4,0
  
};

int duration[] = {         //duration of each note (in ms) Quarter Note is set to 250 ms
  125, 125, 250, 125, 125, 
  125, 125, 250, 125, 125,
  125, 125, 250, 125, 125,
  125, 125, 375, 125 
};

int notes1[]={
   NOTE_E4, NOTE_G4, NOTE_A4, NOTE_A4, 0, 
   NOTE_A4, NOTE_B4, NOTE_C5, NOTE_C5, 0, 
   NOTE_C5, NOTE_D5, NOTE_B4, NOTE_B4, 0,
   NOTE_A4, NOTE_G4, NOTE_A4, 0
  
};

int duration1[]{
  125, 125, 250, 125, 125, 
  125, 125, 250, 125, 125,
  125, 125, 250, 125, 125,
  125, 125, 375, 125

};

int notes2[]{
  NOTE_E4, NOTE_G4, NOTE_A4, NOTE_A4, 0, 
   NOTE_A4, NOTE_C5, NOTE_D5, NOTE_D5, 0, 
   NOTE_D5, NOTE_E5, NOTE_F5, NOTE_F5, 0,
   NOTE_E5, NOTE_D5, NOTE_E5, NOTE_A4, 0
  };

int duration2[]{
  125, 125, 250, 125, 125, 
  125, 125, 250, 125, 125,
  125, 125, 250, 125, 125,
  125, 125, 125, 250, 125
};

int notes3[]{
  NOTE_A4, NOTE_B4, NOTE_C5, NOTE_C5, 0, 
   NOTE_D5, NOTE_E5, NOTE_A4, 0, 
   NOTE_A4, NOTE_C5, NOTE_B4, NOTE_B4, 0,
   NOTE_C5, NOTE_A4, NOTE_B4, 0
  };

int duration3[]{
  125, 125, 250, 125, 125, 
  250, 125, 250, 125, 
  125, 125, 254, 125, 125,
  125, 125, 375, 375
  };
  
int notes4[]{
  NOTE_A4, NOTE_A4, 
   //Repeat of first part
   NOTE_A4, NOTE_B4, NOTE_C5, NOTE_C5, 0, 
   NOTE_C5, NOTE_D5, NOTE_B4, NOTE_B4, 0,
   NOTE_A4, NOTE_G4, NOTE_A4, 0
  };
int duration4[]{
   250, 125,
  //Rpeat of First Part
  125, 125, 250, 125, 125,
  125, 125, 250, 125, 125,
  125, 125, 375, 125 
  };

int notes5[]{
  NOTE_E4, NOTE_G4, NOTE_A4, NOTE_A4, 0, 
   NOTE_A4, NOTE_B4, NOTE_C5, NOTE_C5, 0, 
   NOTE_C5, NOTE_D5, NOTE_B4, NOTE_B4, 0,
   NOTE_A4, NOTE_G4, NOTE_A4, 0
  };
int duration5[]{
   125, 125, 250, 125, 125, 
  125, 125, 250, 125, 125,
  125, 125, 250, 125, 125,
  125, 125, 375, 125
  };
int notes6[]{
  NOTE_E4, NOTE_G4, NOTE_A4, NOTE_A4, 0, 
   NOTE_A4, NOTE_C5, NOTE_D5, NOTE_D5, 0, 
   NOTE_D5, NOTE_E5, NOTE_F5, NOTE_F5, 0,
   NOTE_E5, NOTE_D5, NOTE_E5, NOTE_A4, 0
  };
  int duration6[]{
    125, 125, 250, 125, 125, 
  125, 125, 250, 125, 125,
  125, 125, 250, 125, 125,
  125, 125, 125, 250, 125
    };
    
int notes7[]{
   NOTE_A4, NOTE_B4, NOTE_C5, NOTE_C5, 0, 
   NOTE_D5, NOTE_E5, NOTE_A4, 0, 
   NOTE_A4, NOTE_C5, NOTE_B4, NOTE_B4, 0,
   NOTE_C5, NOTE_A4, NOTE_B4, 0
  };
  int duration7[]{
    125, 125, 250, 125, 125, 
  250, 125, 250, 125, 
  125, 125, 250, 125, 125,
  125, 125, 375, 375
    };
    
int notes8[]{
  NOTE_E5, 0, 0, NOTE_F5, 0, 0,
   NOTE_E5, NOTE_E5, 0, NOTE_G5, 0, NOTE_E5, NOTE_D5, 0, 0,
   NOTE_D5, 0, 0, NOTE_C5, 0, 0,
   NOTE_B4, NOTE_C5, 0, NOTE_B4, 0, NOTE_A4
  };
  int duration8[]{
    250, 125, 375, 250, 125, 375,
  125, 125, 125, 125, 125, 125, 125, 125, 375,
  250, 125, 375, 250, 125, 375,
  125, 125, 125, 125, 125, 500
    };



    
//int notes9[]{
//  NOTE_C4,NOTE_C4,NOTE_D4,NOTE_C4,NOTE_F4,NOTE_E4,
//NOTE_C4,NOTE_C4,NOTE_D4,NOTE_C4,NOTE_G4,NOTE_F4,
//NOTE_C4,NOTE_C4,NOTE_C5,NOTE_A4,NOTE_F4,NOTE_E4,NOTE_D4,
//NOTE_AS4,NOTE_AS4,NOTE_A4,NOTE_F4,NOTE_G4,NOTE_F4,
//  };
//  int duration9[]{
//      8,8,4,4,4,2,
//  8,8,4,4,4,2,
//  8,8,4,4,4,4,4,
//  8,8,4,4,4,2, 
//    };         
